# xmcd
# 
# Track frame offsets:
#     183
#     13468
#     26718
#     37530
#     49438
#     61730
#     74678
#     92813
#     134263
#     158090
#     171748
#     183743
#     194938
#     219878
#     230853
#     245553
# 
# Disc length: 3472
# 
# Revision: 6
# Processed by: cddbd v1.5.2PL0 Copyright (c) Steve Scherf et al.
# Submitted via: fre:ac v1.0.31
# 
DISCID=f80d8e10
DTITLE=Columbia Blues - Dinah Washington Sings The Blues
DYEAR=1987
DGENRE=Blues
TTITLE0=Show Time
TTITLE1=Time Out For Tears
TTITLE2=Trouble In Mind
TTITLE3=A Bad Case Of The Blues
TTITLE4=Is You Is Or Is You Ain't My Baby
TTITLE5=Bad Luck
TTITLE6=You Don't Know What Love Is
TTITLE7=Trouble In The Lowlands (aka Backwater Blues)
TTITLE8=Blue Gardenia
TTITLE9=Soft Winds
TTITLE10=Somewhere Along The Line
TTITLE11=Salty Papa Blues
TTITLE12=Make The Man Love Me
TTITLE13=Lingering
TTITLE14=Since I Fell For You
TTITLE15=No More
EXTD=YEAR: 1987
EXTT0=
EXTT1=
EXTT2=
EXTT3=
EXTT4=
EXTT5=
EXTT6=
EXTT7=
EXTT8=
EXTT9=
EXTT10=
EXTT11=
EXTT12=
EXTT13=
EXTT14=
EXTT15=
PLAYORDER=
